# AST/ASF file generated using VICON BodyLanguage
# -----------------------------------------------
:version 1.10
:name VICON
:units
  mass 1.0
  length 0.45
  angle deg
:documentation
   .ast/.asf automatically generated from VICON data using
   VICON BodyBuilder and BodyLanguage model FoxedUp or BRILLIANT.MOD
:root
   order TX TY TZ RX RY RZ
   axis XYZ
   position 0 0 0  
   orientation 0 0 0 
:bonedata
  begin
     id 1 
     name lhipjoint
     direction 0.603808 -0.713975 0.35448 
     length 2.2025 
     axis 0 0 0  XYZ
  end
  begin
     id 2 
     name lfemur
     direction 0.34202 -0.939693 0  
     length 6.55877  
     axis 0 0 20  XYZ
    dof rx ry rz
    limits (-160.0 20.0)
           (-70.0 70.0)
           (-60.0 70.0)
  end
  begin
     id 3 
     name ltibia
     direction 0.34202 -0.939693 0   
     length 6.80302   
     axis 0 0 20   XYZ
    dof rx
    limits (-10.0 170.0)
  end
  begin
     id 4 
     name lfoot
     direction 0.091848 -0.25235 0.963267   
     length 2.03446   
     axis -90 7.62852e-016 20   XYZ
    dof rx rz
    limits (-45.0 90.0)
           (-70.0 20.0)
  end
  begin
     id 5 
     name ltoes
     direction 1.53608e-011 -4.21925e-011 1   
     length 1.02033   
     axis -90 7.62852e-016 20   XYZ
    dof rx
    limits (-90.0 20.0)
  end
  begin
     id 6 
     name rhipjoint
     direction -0.587285 -0.724947 0.359928   
     length 2.16916  
     axis 0 0 0  XYZ 
  end
  begin
     id 7 
     name rfemur
     direction -0.34202 -0.939693 0   
     length 6.43173   
     axis 0 0 -20   XYZ
    dof rx ry rz
    limits (-160.0 20.0)
           (-70.0 70.0)
           (-70.0 60.0)
  end
  begin
     id 8 
     name rtibia
     direction -0.34202 -0.939693 0   
     length 6.70662   
     axis 0 0 -20   XYZ
    dof rx
    limits (-10.0 170.0)
 end
 begin
     id 9 
     name rfoot
     direction -0.11854 -0.325686 0.938018   
     length 2.0773  
     axis -90 -7.62852e-016 -20   XYZ
    dof rx rz
    limits (-45.0 90.0)
           (-20.0 70.0)
  end
  begin
     id 10 
     name rtoes
     direction -1.53547e-011 -4.21838e-011 1   
     length 1.03267   
     axis -90 -7.62852e-016 -20   XYZ
    dof rx
    limits (-90.0 20.0)
  end
  begin
     id 11 
     name lowerback
     direction -0.0286554 0.999539 0.0100613   
     length 2.08751   
     axis 0 0 0   XYZ
    dof rx ry rz
    limits (-20.0 45.0)
           (-30.0 30.0)
           (-30.0 30.0)
  end
  begin
     id 12 
     name upperback
     direction 0.0227093 0.999705 -0.00860929   
     length 2.08517   
     axis 0 0 0   XYZ
    dof rx ry rz
    limits (-20.0 45.0)
           (-30.0 30.0)
           (-30.0 30.0)
  end
  begin
     id 13 
     name thorax
     direction 0.0351627 0.999285 -0.013892   
     length 2.08412   
     axis 0 0 0   XYZ
    dof rx ry rz
    limits (-20.0 45.0)
           (-30.0 30.0)
           (-30.0 30.0)
  end
  begin
     id 14 
     name lowerneck
     direction -0.0696283 0.997344 0.0213922   
     length 1.44164   
     axis 0 0 0   XYZ
    dof rx ry rz
    limits (-20.0 45.0)
           (-30.0 30.0)
           (-30.0 30.0)
  end
  begin
     id 15 
     name upperneck
     direction 0.0531 0.990412 -0.127531   
     length 1.45022   
     axis 0 0 0   XYZ
    dof rx ry rz
    limits (-20.0 45.0)
           (-30.0 30.0)
           (-30.0 30.0)
  end
  begin
     id 16
     name head
     direction 0.0188154 0.998548 -0.0504727  
     length 1.45845  
     axis 0 0 0   XYZ
    dof rx ry rz
    limits (-20.0 45.0)
           (-30.0 30.0)
           (-30.0 30.0)
  end
  begin
     id 17 
     name lclavicle
     direction 0.961559 0.260051 0.088188  
     length 2.86057  
     axis 0 0 0   XYZ
    dof ry rz
    limits (-20.0 10.0)
           (0.0 20.0)
  end
  begin
     id 18 
     name lhumerus
     direction 1 -4.48959e-011 2.88185e-027   
     length 4.36901   
     axis 180 -30 -90   XYZ
    dof rx ry rz
    limits (-60.0 90.0)
           (-90.0 90.0)
           (-90.0 90.0)
  end
  begin
     id 19
     name lradius
     direction 1 -4.48965e-011 -3.92618e-028   
     length 3.21737   
     axis 180 -30 -90   XYZ
    dof rx
    limits (-10.0 170.0)
  end
  begin
     id 20
     name lwrist
     direction 1 -4.49037e-011 2.57246e-027   
     length 1.60869   
     axis -1.61769e-015 90 90   XYZ
    dof ry
    limits (-180.0 0.0)
 end
  begin
     id 21 
     name lhand
     direction 1 -4.48807e-011 5.12958e-027   
     length 0.564313   
     axis -3.27988e-015 90 90   XYZ
    dof rx rz
    limits (-90.0 90.0)
           (-45.0 45.0)
  end
  begin
     id 22 
     name lfingers
     direction 1 -4.48879e-011 1.02687e-026   
     length 0.454963   
     axis -6.5598e-015 90 90   XYZ
    dof rx
    limits (0.0 90.0)
  end
  begin
     id 23
     name lthumb
     direction 0.707107 -6.3475e-011 0.707107   
     length 0.653239   
     axis -90 45 2.19363e-014   XYZ
    dof rx rz
    limits (-45.0 45.0)
           (-45.0 45.0)
  end
  begin
     id 24 
     name rclavicle
     direction -0.954677 0.253915 0.155304   
     length 3.11497  
     axis 0 0 0   XYZ 
    dof ry rz
    limits (-10.0 20.0)
           (-20.0 0.0)
  end
  begin
     id 25 
     name rhumerus
     direction -1 -4.48958e-011 -8.20169e-028  
     length 4.34118   
     axis 180 30 90   XYZ
    dof rx ry rz
    limits (-90.0 60.0)
           (-90.0 90.0)
           (-90.0 90.0)
  end
  begin
     id 26 
     name rradius
     direction -1 -4.48978e-011 1.5676e-027   
     length 3.09531   
     axis 180 30 90   XYZ
    dof rx
    limits (-10.0 170.0)
  end
  begin
     id 27 
     name rwrist
     direction -1 -4.49001e-011 2.57123e-027   
     length 1.54765   
     axis -1.61769e-015 -90 -90   XYZ
    dof ry
    limits (-180.0 0.0)
  end
  begin
     id 28
     name rhand
     direction -1 -4.48847e-011 5.13225e-027   
     length 0.597446   
     axis -3.27988e-015 -90 -90   XYZ
    dof rx rz
    limits (-90.0 90.0)
           (-45.0 45.0)
  end
  begin
     id 29
     name rfingers
     direction -1 -4.49094e-011 1.02974e-026   
     length 0.481677   
     axis -6.5598e-015 -90 -90   XYZ
    dof rx
    limits (0.0 90.0)
  end
  begin
     id 30
     name rthumb
     direction -0.707107 -6.34859e-011 0.707107   
     length 0.691594   
     axis -90 -45 -2.19363e-014   XYZ
    dof rx rz
    limits (-45.0 45.0)
           (-45.0 45.0)
  end
:hierarchy
  begin
    root lhipjoint rhipjoint lowerback
    lhipjoint lfemur
    lfemur ltibia
    ltibia lfoot
    lfoot ltoes
    rhipjoint rfemur
    rfemur rtibia
    rtibia rfoot
    rfoot rtoes
    lowerback upperback
    upperback thorax
    thorax lowerneck lclavicle rclavicle
    lowerneck upperneck
    upperneck head
    lclavicle lhumerus
    lhumerus lradius
    lradius lwrist
    lwrist lhand lthumb
    lhand lfingers
    rclavicle rhumerus
    rhumerus rradius
    rradius rwrist
    rwrist rhand rthumb
    rhand rfingers
  end

#!OML:ASF I:\Acrobat_Osman\acrobat\cartwheel_test 2\Patient 1\Session 1\acrobat.ASF
:FULLY-SPECIFIED
:DEGREES
258
root 10.0075 15.5374 0.58774 191.393 -50.6659 -183.142
lowerback -2.61246 -7.75916 -9.05236
upperback 1.592 -10.1118 2.54661
thorax 5.16932 -5.36202 6.79857
lowerneck -3.98547 -8.64636 -11.4737
upperneck 9.96412 -12.1279 10.262
head 4.96289 -5.97715 4.24385
rclavicle 7.98493e-014 -1.41634e-015
rhumerus -37.9026 -17.4623 -4.69761
rradius 30.3814
rwrist 1.56338
rhand -30.7264 27.3575
rfingers 7.12502
rthumb -4.01891 -2.58433
lclavicle 7.98493e-014 -1.41634e-015
lhumerus 1.02707 13.3523 38.3071
lradius 32.3207
lwrist 37.0675
lhand -14.9768 -311.277
lfingers 7.12502
lthumb 11.1872 -1001.6
rfemur -30.8032 13.5021 1.38549
rtibia 24.9528
rfoot -8.76128 -10.0876
rtoes -14.5707
lfemur 2.11557 13.6514 -14.4842
ltibia 20.1362
lfoot -18.717 35.3179
ltoes -9.08453
259
root 9.98277 15.5176 0.551539 191.331 -46.1827 -183.117
lowerback -2.40782 -8.39595 -9.50253
upperback 1.65994 -10.9817 2.77684
thorax 5.43451 -5.83137 7.17536
lowerneck -4.91691 -7.84817 -10.9683
upperneck 10.4322 -10.962 9.73611
head 5.07428 -5.38783 4.06473
rclavicle -3.44146e-015 -9.11925e-015
rhumerus -39.5412 -17.3863 -4.64367
rradius 30.239
rwrist 0.935448
rhand -30.5754 25.8756
rfingers 7.12502
rthumb -3.87311 -4.06899
lclavicle -3.44146e-015 -9.11925e-015
lhumerus 3.08992 12.4792 39.9881
lradius 32.1115
lwrist 36.3486
lhand -14.7699 -311.776
lfingers 7.12502
lthumb 11.3867 -1002.1
rfemur -32.6888 13.8369 1.71144
rtibia 25.8287
rfoot -8.39721 -7.68176
rtoes -15.1191
lfemur 3.64553 14.7129 -15.487
ltibia 19.5224
lfoot -19.5266 37.1978
ltoes -8.68276
260
root 9.95085 15.5077 0.504978 191.261 -41.8215 -183.05
lowerback -2.25564 -9.05242 -9.90791
upperback 1.69314 -11.8794 3.01992
thorax 5.71248 -6.3139 7.52225
lowerneck -5.7979 -7.01847 -10.611
upperneck 10.9413 -9.7573 9.24138
head 5.20779 -4.78921 3.92535
rclavicle 1.63069e-013 -2.02636e-014
rhumerus -41.2487 -17.5129 -4.46997
rradius 30.1502
rwrist 0.184498
rhand -31.3414 29.0879
rfingers 7.12502
rthumb -4.6128 -0.841906
lclavicle 1.63069e-013 -2.02636e-014
lhumerus 5.12639 11.4889 41.4683
lradius 31.9022
lwrist 34.9749
lhand -14.9109 -312.038
lfingers 7.12502
lthumb 11.2507 -1002.36
rfemur -34.4822 14.2355 2.09125
rtibia 26.7081
rfoot -8.4687 -5.99135
rtoes -13.0729
lfemur 5.12961 15.2012 -16.4306
ltibia 19.0339
lfoot -20.5334 38.6456
ltoes -7.87974
261
root 9.91525 15.5023 0.445659 191.141 -37.6392 -182.89
lowerback -2.08239 -9.69306 -10.1191
upperback 1.60073 -12.761 3.18184
thorax 5.79493 -6.76498 7.69178
lowerneck -6.14755 -6.25953 -10.314
upperneck 11.3097 -8.71779 8.88362
head 5.24344 -4.28882 3.84332
rclavicle -7.65694e-014 -5.73991e-015
rhumerus -43.2874 -16.9467 -4.65785
rradius 30.1767
rwrist -0.14568
rhand -31.1621 25.6632
rfingers 7.12502
rthumb -4.43971 -4.27024
lclavicle -7.65694e-014 -5.73991e-015
lhumerus 6.82264 9.89444 42.5122
lradius 31.8978
lwrist 33.6543
lhand -15.4404 -311.518
lfingers 7.12502
lthumb 10.7399 -1001.81
rfemur -36.072 14.5319 2.70743
rtibia 27.5729
rfoot -8.86029 -4.98838
rtoes -11.291
lfemur 6.63445 15.5357 -17.1294
ltibia 18.6376
lfoot -20.814 39.3876
ltoes -7.73001
262
root 9.87592 15.4964 0.375114 190.97 -33.466 -182.653
lowerback -1.84164 -10.2404 -10.2167
upperback 1.42935 -13.5295 3.36921
thorax 5.71797 -7.14768 7.86521
lowerneck -6.27824 -5.72938 -10.1398
upperneck 11.6385 -8.01421 8.59768
head 5.27712 -3.96272 3.77964
rclavicle 3.51228e-014 -2.04748e-014
rhumerus -45.6585 -16.4019 -4.55167
rradius 30.1407
rwrist -0.441979
rhand -31.0991 25.8718
rfingers 7.12502
rthumb -4.37881 -4.06297
lclavicle 3.51228e-014 -2.04748e-014
lhumerus 8.69539 7.93833 43.6339
lradius 32.0047
lwrist 33.5884
lhand -15.6345 -309.226
lfingers 7.12502
lthumb 10.5528 -999.511
rfemur -37.364 14.8655 3.57435
rtibia 28.3534
rfoot -9.55312 -4.51405
rtoes -10.5873
lfemur 8.14648 16.0607 -17.6024
ltibia 18.3659
lfoot -19.4256 39.7746
ltoes -9.56298
263
root 9.8332 15.4948 0.288252 190.846 -29.0206 -182.381
lowerback -1.74414 -10.7035 -10.4037
upperback 1.2564 -14.1772 3.67027
thorax 5.7523 -7.48276 8.19398
lowerneck -6.3695 -5.70977 -10.1188
upperneck 11.8918 -7.42077 8.25582
head 5.30989 -3.50997 3.72866
rclavicle 1.10214e-013 2.78299e-015
rhumerus -47.8347 -16.0635 -4.41619
rradius 30.0742
rwrist -1.21156
rhand -31.3892 27.0441
rfingers 7.12502
rthumb -4.65899 -2.88465
lclavicle 1.10214e-013 2.78299e-015
lhumerus 11.0207 7.71855 45.6366
lradius 31.4735
lwrist 32.4598
lhand -14.832 -309.641
lfingers 7.12502
lthumb 11.3267 -999.967
rfemur -38.4912 15.4291 4.5281
rtibia 28.9392
rfoot -10.5851 -4.37764
rtoes -9.30405
lfemur 9.47302 16.7829 -18.029
ltibia 18.4243
lfoot -16.1566 40.0659
ltoes -13.8142
264
root 9.78453 15.5075 0.180285 190.736 -24.2135 -182.077
lowerback -1.88588 -11.1229 -10.5813
upperback 1.08186 -14.7414 3.94316
thorax 5.89825 -7.77774 8.45087
lowerneck -6.53764 -5.42624 -10.1321
upperneck 12.1802 -6.98428 7.8648
head 5.37318 -3.31941 3.63857
rclavicle 7.32537e-014 7.34261e-015
rhumerus -49.7864 -16.5705 -3.70666
rradius 29.4241
rwrist -0.604991
rhand -31.5766 28.1128
rfingers 7.12502
rthumb -4.83987 -1.81194
lclavicle 7.32537e-014 7.34261e-015
lhumerus 13.0734 7.79323 47.922
lradius 31.1866
lwrist 31.6724
lhand -14.5584 -309.524
lfingers 7.12502
lthumb 11.5907 -999.864
rfemur -39.3911 16.1648 5.51465
rtibia 29.2668
rfoot -11.9371 -4.84135
rtoes -7.55688
lfemur 10.5934 17.3839 -18.5474
ltibia 18.9737
lfoot -12.1702 40.0435
ltoes -18.0531
265
root 9.72972 15.5316 0.0534481 190.537 -19.1834 -181.702
lowerback -2.11318 -11.4921 -10.6052
upperback 0.876761 -15.2325 4.18686
thorax 5.99843 -8.02605 8.59436
lowerneck -6.72856 -5.24477 -10.1729
upperneck 12.6051 -6.66348 7.35694
head 5.49308 -3.19312 3.5058
rclavicle -1.08307e-014 -1.14488e-014
rhumerus -51.5207 -16.9369 -3.19934
rradius 29.1298
rwrist -0.107769
rhand -30.9217 23.7925
rfingers 7.12502
rthumb -4.20756 -6.14573
lclavicle -1.08307e-014 -1.14488e-014
lhumerus 14.3646 6.75335 50.0831
lradius 31.9804
lwrist 32.7811
lhand -17.4302 -311.328
lfingers 7.12502
lthumb 8.82019 -1001.53
rfemur -39.7901 16.6984 6.80694
rtibia 29.3625
rfoot -13.4117 -6.30951
rtoes -6.8909
lfemur 11.5469 17.5555 -19.1501
ltibia 20.0547
lfoot -8.68712 39.5499
ltoes -19.611
266
root 9.66879 15.5593 -0.0852235 190.296 -14.022 -181.296
lowerback -2.19988 -11.8045 -10.4576
upperback 0.502848 -15.6673 4.4507
thorax 5.78539 -8.22276 8.73274
lowerneck -6.44562 -5.12472 -10.2441
upperneck 12.8723 -6.43768 6.75967
head 5.49234 -3.12794 3.35212
rclavicle -2.4786e-014 -1.14301e-015
rhumerus -53.1814 -17.8311 -1.62131
rradius 27.6872
rwrist 0.747747
rhand -31.0573 26.704
rfingers 7.12502
rthumb -4.33847 -3.23155
lclavicle -2.4786e-014 -1.14301e-015
lhumerus 14.9745 5.53167 52.4001
lradius 33.1437
lwrist 33.2808
lhand -15.2098 -308.035
lfingers 7.12502
lthumb 10.9624 -998.341
rfemur -39.6914 16.5556 8.55803
rtibia 29.3352
rfoot -15.0091 -8.21172
rtoes -6.40727
lfemur 12.2035 17.5412 -19.8091
ltibia 21.7317
lfoot -5.01173 38.4624
ltoes -19.2167
267
root 9.599 15.5865 -0.236324 189.97 -8.68978 -180.885
lowerback -2.23072 -12.0887 -10.1979
upperback 0.160517 -16.0756 4.70053
thorax 5.53511 -8.40523 8.81495
lowerneck -5.9198 -5.01938 -10.2843
upperneck 12.8402 -6.25785 6.18108
head 5.36219 -3.08689 3.20065
rclavicle 1.06101e-014 -1.85864e-014
rhumerus -54.1025 -18.1356 -0.933445
rradius 26.9134
rwrist 1.35568
rhand -30.4354 24.7089
rfingers 7.12502
rthumb -3.73793 -5.23803
lclavicle 1.06101e-014 -1.85864e-014
lhumerus 14.9465 3.56377 54.5192
lradius 34.7343
lwrist 33.0364
lhand -15.9765 -313.792
lfingers 7.12502
lthumb 10.2228 -1004.06
rfemur -39.1061 15.6492 10.6778
rtibia 29.1527
rfoot -16.6928 -9.8967
rtoes -5.23852
lfemur 12.4992 17.8486 -20.3377
ltibia 24.2537
lfoot -0.827944 36.2351
ltoes -18.4693
268
root 9.5276 15.6007 -0.40376 189.57 -3.06259 -180.511
lowerback -2.44718 -12.2843 -9.85248
upperback 0.0661213 -16.3475 4.84054
thorax 5.56439 -8.53482 8.69629
lowerneck -5.82718 -5.05339 -10.4888
upperneck 12.7733 -6.26986 5.95069
head 5.32755 -3.12279 3.16109
rclavicle 9.77275e-014 2.28602e-015
rhumerus -54.8046 -18.4327 -0.610941
rradius 26.3935
rwrist 1.31727
rhand -30.6366 25.3718
rfingers 7.12502
rthumb -3.93224 -4.57168
lclavicle 9.77275e-014 2.28602e-015
lhumerus 15.1671 1.55389 56.4149
lradius 36.3388
lwrist 33.6466
lhand -15.5567 -310.206
lfingers 7.12502
lthumb 10.6278 -1000.5
rfemur -38.2757 14.1417 13.0105
rtibia 28.9807
rfoot -18.2206 -11.4539
rtoes -3.91484
lfemur 12.6346 18.7674 -20.6388
ltibia 27.3766
lfoot 4.66421 32.3098
ltoes -18.2903
269
root 9.45864 15.6314 -0.588542 189.184 2.91174 -180.344
lowerback -2.59928 -12.4356 -9.6905
upperback -0.131002 -16.4797 4.92557
thorax 5.45127 -8.55547 8.66806
lowerneck -5.98687 -5.16647 -10.9691
upperneck 13.0216 -6.3727 5.99783
head 5.45961 -3.19534 3.24066
rclavicle -2.52258e-013 1.21259e-014
rhumerus -55.0858 -17.8032 -0.992713
rradius 26.4788
rwrist 0.409366
rhand -30.8859 23.9642
rfingers 7.12502
rthumb -4.17296 -5.97465
lclavicle -2.52258e-013 1.21259e-014
lhumerus 15.0952 -1.50313 57.9303
lradius 38.1689
lwrist 34.5031
lhand -15.5856 -317.447
lfingers 7.12502
lthumb 10.5999 -1007.73
rfemur -37.3664 12.1791 15.2423
rtibia 28.7481
rfoot -19.3293 -12.8764
rtoes -2.37177
lfemur 12.0664 20.0314 -21.007
ltibia 31.0285
lfoot 12.8456 25.2857
ltoes -21.6149
270
root 9.39498 15.6425 -0.772556 188.739 9.13111 -180.434
lowerback -2.27957 -12.5995 -10.0353
upperback -0.712321 -16.7284 5.19398
thorax 4.89069 -8.65099 9.21112
lowerneck -5.8802 -5.17447 -11.4786
upperneck 13.3577 -6.30928 5.77281
head 5.55353 -3.20685 3.25777
rclavicle -8.73162e-014 -3.18055e-015
rhumerus -54.4112 -16.7009 -1.28501
rradius 26.7167
rwrist -0.901697
rhand -30.3076 25.6251
rfingers 7.12502
rthumb -3.61452 -4.32403
lclavicle -8.73162e-014 -3.18055e-015
lhumerus 14.288 -3.73989 59.9325
lradius 39.9435
lwrist 34.8019
lhand -14.383 -315.029
lfingers 7.12502
lthumb 11.7598 -1005.38
rfemur -36.5099 9.78802 17.3233
rtibia 28.6121
rfoot -19.993 -13.9593
rtoes -2.08681
lfemur 11.1213 20.9265 -21.5753
ltibia 34.8573
lfoot 18.1401 16.7157
ltoes -18.5384
271
root 9.33214 15.635 -0.955146 188.111 15.6956 -180.399
lowerback -2.32847 -12.6634 -10.2437
upperback -0.857117 -16.8092 5.28634
thorax 4.8705 -8.6916 9.39834
lowerneck -5.572 -5.2235 -11.7646
upperneck 13.1822 -6.40076 5.85901
head 5.46734 -3.26759 3.33025
rclavicle -5.9536e-014 -2.74323e-014
rhumerus -53.5968 -16.2254 -1.77126
rradius 27.1378
rwrist -2.10727
rhand -31.126 24.8616
rfingers 7.12502
rthumb -4.40483 -5.07261
lclavicle -5.9536e-014 -2.74323e-014
lhumerus 14.1284 -5.9509 61.3989
lradius 41.3356
lwrist 34.306
lhand -14.1683 -315.29
lfingers 7.12502
lthumb 11.9668 -1005.65
rfemur -35.372 7.46426 19.5509
rtibia 28.4463
rfoot -20.5873 -14.3369
rtoes -2.31392
lfemur 9.82539 21.8293 -21.8722
ltibia 38.8191
lfoot 23.1778 6.30972
ltoes -14.9539
